<svg viewBox="0 0 480 300" xmlns="http://www.w3.org/2000/svg"><defs><linearGradient id="t" x1="0" y1="0" x2="1" y2="1"><stop offset="0" stop-color="#d9b98c"/><stop offset="1" stop-color="#c39a67"/></linearGradient><linearGradient id="f" x1="0" y1="0" x2="1" y2="1"><stop offset="0" stop-color="#e3c79d"/><stop offset="1" stop-color="#cda875"/></linearGradient></defs><rect width="480" height="300" fill="#ffffff"/><ellipse cx="240" cy="239.1" rx="214" ry="16" fill="#000" opacity="0.08"/><polygon points="50,213 54.9,215.5 54.9,227.1 50,224.6" fill="#9c7444"/><polygon points="54.9,215.5 430,103 430,114.6 54.9,227.1" fill="#ab8151"/><polygon points="54.9,215.5 430,103 430,107.6 54.9,220.1" fill="#c8a06f" opacity="0.85"/><polygon points="54.9,222.4 430,109.9 430,114.6 54.9,227.1" fill="#82623a" opacity="0.85"/><polygon points="50,213 425.1,100.5 430,103 54.9,215.5" fill="url(#t)" stroke="#8f6a3d" stroke-width="1"/><g stroke="#b5905f" stroke-width="1" opacity="0.4"><line x1="51" y1="213.5" x2="426.1" y2="101"/><line x1="52" y1="214" x2="427.1" y2="101.5"/><line x1="52.9" y1="214.5" x2="428" y2="102"/><line x1="53.9" y1="215" x2="429" y2="102.5"/></g></svg>