<svg viewBox="0 0 480 300" xmlns="http://www.w3.org/2000/svg"><defs><linearGradient id="t" x1="0" y1="0" x2="1" y2="1"><stop offset="0" stop-color="#d9b98c"/><stop offset="1" stop-color="#c39a67"/></linearGradient><linearGradient id="f" x1="0" y1="0" x2="1" y2="1"><stop offset="0" stop-color="#e3c79d"/><stop offset="1" stop-color="#cda875"/></linearGradient></defs><rect width="480" height="300" fill="#ffffff"/><ellipse cx="240" cy="247.5" rx="214" ry="16" fill="#000" opacity="0.08"/><polygon points="50,175.9 147.6,224.8 147.6,235.5 50,186.6" fill="#9c7444"/><polygon points="147.6,224.8 430,140.1 430,150.8 147.6,235.5" fill="#ab8151"/><polygon points="50,175.9 332.4,91.2 430,140.1 147.6,224.8" fill="url(#t)" stroke="#8f6a3d" stroke-width="1"/><g stroke="#b5905f" stroke-width="1" opacity="0.4"><line x1="69.5" y1="185.7" x2="351.9" y2="101"/><line x1="89.1" y1="195.5" x2="371.4" y2="110.8"/><line x1="108.6" y1="205.2" x2="390.9" y2="120.5"/><line x1="128.1" y1="215" x2="410.5" y2="130.3"/></g><polygon points="114.7,172.2 306.7,114.6 365.3,143.8 173.3,201.4" fill="#9c7444" opacity="0.9"/><polygon points="114.7,169.2 306.7,111.6 365.3,140.8 173.3,198.4" fill="url(#f)" stroke="#8f6a3d" stroke-width="0.8"/></svg>