<svg viewBox="0 0 480 300" xmlns="http://www.w3.org/2000/svg"><defs><linearGradient id="t" x1="0" y1="0" x2="1" y2="1"><stop offset="0" stop-color="#d9b98c"/><stop offset="1" stop-color="#c39a67"/></linearGradient><linearGradient id="f" x1="0" y1="0" x2="1" y2="1"><stop offset="0" stop-color="#e3c79d"/><stop offset="1" stop-color="#cda875"/></linearGradient></defs><rect width="480" height="300" fill="#ffffff"/><ellipse cx="240" cy="252.7" rx="214" ry="16" fill="#000" opacity="0.08"/><polygon points="50,183.6 128.4,222.8 128.4,240.7 50,201.5" fill="#9c7444"/><polygon points="128.4,222.8 430,132.4 430,150.3 128.4,240.7" fill="#ab8151"/><polygon points="50,183.6 351.6,93.2 430,132.4 128.4,222.8" fill="url(#t)" stroke="#8f6a3d" stroke-width="1"/><g stroke="#b5905f" stroke-width="1" opacity="0.4"><line x1="65.7" y1="191.5" x2="367.3" y2="101"/><line x1="81.4" y1="199.3" x2="383" y2="108.8"/><line x1="97" y1="207.2" x2="398.6" y2="116.7"/><line x1="112.7" y1="215" x2="414.3" y2="124.5"/></g><g stroke="#8f6a3d" stroke-width="1" opacity="0.35"><line x1="152.5" y1="152.9" x2="231" y2="192.1"/><line x1="249" y1="123.9" x2="327.5" y2="163.1"/></g></svg>